# xmcd
#
# Track frame offsets: 
#        150
#        20174
#        33066
#        49192
#        61731
#        77172
#        91287
#        105057
#        120008
#        136857
#        153287
#        164081
#        177291
#
# Disc length: 2542 seconds
#
# Revision: 0
# Processed by: cddbd v1.5.2PL0 Copyright (c) Steve Scherf et al.
# Submitted via: ExactAudioCopy v0.99pb4
#
DISCID=9109ec0d
DTITLE=Bakelite Radio - Volume 1
DYEAR=2009
DGENRE=Rock
TTITLE0=Yellow Roses
TTITLE1=Tryin' To Win
TTITLE2=Hang My Head And Cry
TTITLE3=Holy Cow
TTITLE4=Just For a Thrill
TTITLE5=Be Real
TTITLE6=Insurance
TTITLE7=Blues All Around My Head
TTITLE8=Let It Be Me
TTITLE9=Anna
TTITLE10=Good Times
TTITLE11=Nobody's Fault But Mine
TTITLE12=Come Back Baby
EXTD=
EXTT0=
EXTT1=
EXTT2=
EXTT3=
EXTT4=
EXTT5=
EXTT6=
EXTT7=
EXTT8=
EXTT9=
EXTT10=
EXTT11=
EXTT12=
PLAYORDER=
